<?xml version="1.0" encoding="UTF-8"?>
<svg version="1.1" xmlns="http://www.w3.org/2000/svg" width="32" height="32">
<path d="M0 0 C4.29 0 8.58 0 13 0 C13.66 1.65 14.32 3.3 15 5 C15.66 5 16.32 5 17 5 C17.66 3.35 18.32 1.7 19 0 C23.29 0 27.58 0 32 0 C31.08828278 4.55858609 30.08590926 7.01124049 27.83984375 10.95703125 C27.21142578 12.06884766 26.58300781 13.18066406 25.93554688 14.32617188 C25.26968046 15.48836675 24.60366294 16.65047506 23.9375 17.8125 C23.26694627 18.99378217 22.59701769 20.17541945 21.92773438 21.35742188 C20.29127213 24.24183374 18.64851754 27.1224665 17 30 C16.34 30 15.68 30 15 30 C13.01560151 26.5361769 11.04043097 23.06727145 9.07348633 19.59350586 C8.4037734 18.41370489 7.7316018 17.23529593 7.05688477 16.05834961 C6.08477302 14.36163796 5.12235552 12.65938381 4.16015625 10.95703125 C3.57886963 9.93585205 2.99758301 8.91467285 2.39868164 7.86254883 C1 5 1 5 0 0 Z " fill="#4CB786" transform="translate(0,1)"/>
<path d="M0 0 C1.98 0 3.96 0 6 0 C6.66 1.65 7.32 3.3 8 5 C8.66 5 9.32 5 10 5 C10.66 3.35 11.32 1.7 12 0 C13.98 0 15.96 0 18 0 C17.40740672 4.37544904 15.78843172 7.52240004 13.5625 11.3125 C12.94503906 12.38113281 12.32757813 13.44976562 11.69140625 14.55078125 C11.13324219 15.35902344 10.57507812 16.16726562 10 17 C9.34 17 8.68 17 8 17 C6.65869239 14.73354942 5.32683766 12.46239903 4 10.1875 C3.42765625 9.22360352 3.42765625 9.22360352 2.84375 8.24023438 C0 3.33984375 0 3.33984375 0 0 Z " fill="#435666" transform="translate(7,1)"/>
</svg>
